<svg fill="none" height="24" viewBox="0 0 24 24" width="24" xmlns="http://www.w3.org/2000/svg"><g fill="#1c274c"><path clip-rule="evenodd" d="m16.5 21.8389c-.0127.0028-.0255.0055-.0383.0083l-.0035.0007c-.0158.0033-.0316.0066-.0475.0099l-.0015.0003c.0164-.0033.0327-.0067.049-.0102.014-.003.0279-.006.0418-.009z" fill-rule="evenodd"/><path d="m22 15c-.5838 0-1.0761 0-1.5.0076-.9276.0165-1.5282.0692-2.0451.2371-1.5222.4946-2.7156 1.688-3.2102 3.2102-.1679.5169-.2206 1.1175-.2371 2.0451-.0076.4239-.0076.9162-.0076 1.5.4827 0 .954-.0489 1.4092-.1419l.0015-.0003.0475-.0099.0035-.0007.0383-.0083c2.662-.5812 4.7577-2.6769 5.3389-5.3389.1055-.4832.1611-.9851.1611-1.5z"/><path clip-rule="evenodd" d="m2 12c0 4.714 0 7.0711 1.46447 8.5355 1.46446 1.4645 3.82148 1.4645 8.53553 1.4645h1.5l-.0001-.2591c-.0009-1.6084-.0015-2.7655.3182-3.7495.0692-.2128.1488-.4206.2384-.623-.6408.2466-1.3335.3816-2.0565.3816-1.2849 0-2.47415-.4266-3.44657-1.1474-.33276-.2467-.40257-.7164-.15591-1.0492.24666-.3327.71637-.4025 1.04914-.1559.72834.5399 1.60744.8525 2.55334.8525s1.8251-.3126 2.5534-.8525c.2645-.196.6154-.1922.8721-.0153.7117-.705 1.5865-1.2458 2.5659-1.5641.984-.3197 2.1411-.3191 3.7495-.3182l.2591.0001v-1.5c0-4.71405 0-7.07107-1.4645-8.53553-1.4644-1.46447-3.8215-1.46447-8.5355-1.46447-4.71405 0-7.07107 0-8.53553 1.46447-1.46447 1.46446-1.46447 3.82148-1.46447 8.53553zm13 0c.5523 0 1-.6716 1-1.5 0-.82843-.4477-1.5-1-1.5s-1 .67157-1 1.5c0 .8284.4477 1.5 1 1.5zm-6 0c.55228 0 1-.6716 1-1.5 0-.82843-.44772-1.5-1-1.5s-1 .67157-1 1.5c0 .8284.44772 1.5 1 1.5z" fill-rule="evenodd"/></g></svg>